<svg xmlns="http://www.w3.org/2000/svg" viewBox="0 0 24 24" width="36" height="36" fill="rgb(113, 246, 11)">
  <path d="M12 0C5.373 0 0 5.373 0 12c0 5.303 3.438 9.8 8.205 11.387.6.11.793-.26.793-.577v-2.234c-3.338.724-4.042-1.416-4.042-1.416-.546-1.387-1.333-1.757-1.333-1.757-1.089-.745.084-.73.084-.73 1.205.084 1.838 1.235 1.838 1.235 1.07 1.835 2.809 1.305 3.495.997.108-.775.418-1.305.762-1.605-2.665-.305-5.466-1.332-5.466-5.93 0-1.31.465-2.382 1.235-3.222-.123-.303-.535-1.524.117-3.176 0 0 1.008-.322 3.3 1.23a11.513 11.513 0 013.006-.405c1.02.004 2.045.137 3.006.405 2.291-1.552 3.298-1.23 3.298-1.23.653 1.653.241 2.873.118 3.176.77.84 1.235 1.912 1.235 3.222 0 4.61-2.805 5.625-5.475 5.922.429.37.81 1.1.81 2.219v3.293c0 .319.192.694.801.577C20.565 21.798 24 17.303 24 12 24 5.373 18.627 0 12 0z"/>
</svg>
