<svg xmlns="http://www.w3.org/2000/svg" xmlns:xlink="http://www.w3.org/1999/xlink" viewBox="0 0 24 24" width="36" height="36" fill="rgb(113, 246, 11)">
  <path d="M12 2.163c3.204 0 3.584.012 4.85.07 1.366.062 2.633.34 3.608 1.315.975.975 1.254 2.242 1.315 3.608.058 1.266.069 1.645.069 4.85s-.012 3.584-.07 4.85c-.062 1.366-.34 2.633-1.315 3.608-.975.975-2.242 1.254-3.608 1.315-1.266.058-1.645.069-4.85.069s-3.584-.012-4.85-.07c-1.366-.062-2.633-.34-3.608-1.315-.975-.975-1.254-2.242-1.315-3.608-.058-1.266-.069-1.645-.069-4.85s.012-3.584.07-4.85c.062-1.366.34-2.633 1.315-3.608.975-.975 2.242-1.254 3.608-1.315C8.416 2.175 8.796 2.163 12 2.163m0-2.163C8.741 0 8.332.013 7.052.072 5.775.131 4.52.423 3.433 1.51 2.345 2.598 2.054 3.853 1.995 5.13.936 8.395.936 15.605 1.995 18.87c.059 1.277.35 2.532 1.438 3.62 1.088 1.088 2.343 1.38 3.62 1.439 3.265 1.059 10.475 1.059 13.74 0 1.277-.059 2.532-.35 3.62-1.439 1.088-1.088 1.38-2.343 1.439-3.62 1.059-3.265 1.059-10.475 0-13.74-.059-1.277-.35-2.532-1.438-3.62C19.532.423 18.277.131 16.999.072 15.719.013 15.309 0 12 0zm0 5.838a6.162 6.162 0 100 12.324 6.162 6.162 0 000-12.324zm0 10.162a3.998 3.998 0 110-7.996 3.998 3.998 0 010 7.996zm6.406-11.845a1.44 1.44 0 10-.001 2.879 1.44 1.44 0 000-2.879z"/>
</svg>
